<svg xmlns="http://www.w3.org/2000/svg" viewBox="0 0 400 400" width="400" height="400">
  <rect width="400" height="400" fill="#0D0D1A"/>
  
  <!-- Outer circle -->
  <circle cx="200" cy="200" r="185" fill="none" stroke="#E8845C" stroke-width="20"/>
  
  <!-- Aperture blades - triadic: magenta, burnt orange, teal accent -->
  <path d="M 200 30 L 280 80 L 235 170 L 165 170 Z" fill="#C2185B"/>
  <path d="M 310 55 L 375 150 L 300 190 L 250 130 Z" fill="#D4652A"/>
  <path d="M 375 245 L 320 360 L 255 300 L 295 200 Z" fill="#C2185B"/>
  <path d="M 265 350 L 175 385 L 155 295 L 230 240 Z" fill="#0E7C7B"/>
  <path d="M 100 365 L 30 275 L 115 225 L 160 310 Z" fill="#D4652A"/>
  <path d="M 35 175 L 70 55 L 150 115 L 115 215 Z" fill="#7B2040"/>
  
  <!-- 7-point explosive star - hot white-gold -->
  <polygon points="
    168,5
    185,140
    320,30
    240,160
    400,180
    255,220
    340,355
    222,262
    175,395
    170,250
    20,290
    148,195
    55,100
    165,170
  " fill="#FBE5A0"/>
  

</svg>
